<svg width="127" height="127" viewBox="0 0 127 127" fill="none" xmlns="http://www.w3.org/2000/svg">
<path d="M60.3078 1.84067C62.3505 0.697068 64.8407 0.697069 66.8834 1.84067L70.6821 3.96742C72.0799 4.74995 73.7109 5.00828 75.282 4.69598L79.5521 3.84719C81.8482 3.39079 84.2165 4.1603 85.8058 5.87914L88.7614 9.07569C89.8489 10.2518 91.3203 11.0015 92.911 11.19L97.2344 11.7023C99.5591 11.9778 101.574 13.4415 102.554 15.5673L104.377 19.5207C105.048 20.9754 106.216 22.1431 107.67 22.8139L111.624 24.6371C113.75 25.6175 115.213 27.6321 115.489 29.9568L116.001 34.2802C116.19 35.8709 116.939 37.3423 118.115 38.4298L121.312 41.3854C123.031 42.9747 123.8 45.343 123.344 47.6391L122.495 51.9092C122.183 53.4803 122.441 55.1113 123.224 56.5091L125.351 60.3078C126.494 62.3505 126.494 64.8407 125.351 66.8834L123.224 70.6821C122.441 72.0799 122.183 73.7109 122.495 75.282L123.344 79.5521C123.8 81.8482 123.031 84.2165 121.312 85.8058L118.115 88.7614C116.939 89.8489 116.19 91.3203 116.001 92.911L115.489 97.2344C115.213 99.5591 113.75 101.574 111.624 102.554L107.67 104.377C106.216 105.048 105.048 106.216 104.377 107.67L102.554 111.624C101.574 113.75 99.5591 115.213 97.2344 115.489L92.911 116.001C91.3203 116.19 89.8489 116.939 88.7614 118.115L85.8058 121.312C84.2165 123.031 81.8482 123.8 79.5521 123.344L75.282 122.495C73.7109 122.183 72.0799 122.441 70.6821 123.224L66.8834 125.351C64.8407 126.494 62.3505 126.494 60.3078 125.351L56.5091 123.224C55.1113 122.441 53.4803 122.183 51.9092 122.495L47.6391 123.344C45.343 123.8 42.9747 123.031 41.3854 121.312L38.4298 118.115C37.3423 116.939 35.8709 116.19 34.2802 116.001L29.9568 115.489C27.6321 115.213 25.6175 113.75 24.6371 111.624L22.8139 107.67C22.1431 106.216 20.9754 105.048 19.5207 104.377L15.5673 102.554C13.4415 101.574 11.9778 99.5591 11.7023 97.2344L11.19 92.911C11.0015 91.3203 10.2518 89.8489 9.07569 88.7614L5.87914 85.8058C4.16029 84.2165 3.39079 81.8482 3.8472 79.5521L4.69598 75.282C5.00828 73.7109 4.74995 72.0799 3.96742 70.6821L1.84067 66.8834C0.697067 64.8407 0.697069 62.3505 1.84067 60.3078L3.96742 56.5091C4.74995 55.1113 5.00828 53.4803 4.69598 51.9092L3.84719 47.6391C3.39079 45.343 4.1603 42.9747 5.87914 41.3854L9.07569 38.4298C10.2518 37.3423 11.0015 35.8709 11.19 34.2802L11.7023 29.9568C11.9778 27.6321 13.4415 25.6175 15.5673 24.6371L19.5207 22.8139C20.9754 22.1431 22.1431 20.9754 22.8139 19.5207L24.6371 15.5673C25.6175 13.4415 27.6321 11.9778 29.9568 11.7023L34.2802 11.19C35.8709 11.0015 37.3423 10.2518 38.4298 9.07569L41.3854 5.87914C42.9747 4.1603 45.343 3.39079 47.6391 3.84719L51.9092 4.69598C53.4803 5.00828 55.1113 4.74995 56.5091 3.96742L60.3078 1.84067Z" fill="white"/>
</svg>
