<svg width="80" height="80" viewBox="0 0 80 80" fill="none" xmlns="http://www.w3.org/2000/svg">
<circle cx="40" cy="40" r="40" fill="#400080"/>
<path d="M40 23.3333C38.3518 23.3333 36.7407 23.8221 35.3702 24.7377C33.9998 25.6534 32.9317 26.9549 32.301 28.4776C31.6703 30.0003 31.5052 31.6759 31.8268 33.2924C32.1483 34.9089 32.942 36.3938 34.1074 37.5592C35.2729 38.7246 36.7577 39.5183 38.3742 39.8399C39.9908 40.1614 41.6663 39.9964 43.189 39.3656C44.7117 38.7349 46.0132 37.6668 46.9289 36.2964C47.8446 34.926 48.3333 33.3148 48.3333 31.6666C48.3333 29.4565 47.4554 27.3369 45.8926 25.7741C44.3298 24.2113 42.2101 23.3333 40 23.3333ZM40 36.6666C39.0111 36.6666 38.0444 36.3734 37.2221 35.824C36.3999 35.2746 35.759 34.4937 35.3806 33.5801C35.0022 32.6664 34.9031 31.6611 35.0961 30.6912C35.289 29.7213 35.7652 28.8304 36.4645 28.1311C37.1637 27.4318 38.0546 26.9556 39.0245 26.7627C39.9945 26.5698 40.9998 26.6688 41.9134 27.0472C42.827 27.4257 43.6079 28.0665 44.1573 28.8888C44.7068 29.711 45 30.6777 45 31.6666C45 32.9927 44.4732 34.2645 43.5355 35.2022C42.5979 36.1399 41.3261 36.6666 40 36.6666ZM55 55V53.3333C55 50.2391 53.7708 47.2717 51.5829 45.0837C49.395 42.8958 46.4275 41.6666 43.3333 41.6666H36.6667C33.5725 41.6666 30.605 42.8958 28.4171 45.0837C26.2292 47.2717 25 50.2391 25 53.3333V55H28.3333V53.3333C28.3333 51.1232 29.2113 49.0036 30.7741 47.4408C32.3369 45.878 34.4565 45 36.6667 45H43.3333C45.5435 45 47.6631 45.878 49.2259 47.4408C50.7887 49.0036 51.6667 51.1232 51.6667 53.3333V55H55Z" fill="white"/>
</svg>
