<svg width="60" height="60" viewBox="0 0 60 60" fill="none" xmlns="http://www.w3.org/2000/svg">
<circle cx="30" cy="30" r="30" fill="#FF9202"/>
<path d="M24.289 40.3C22.629 40.3 21.129 39.88 19.789 39.04C18.469 38.2 17.429 36.98 16.669 35.38C15.909 33.76 15.529 31.8 15.529 29.5C15.529 27.2 15.909 25.25 16.669 23.65C17.429 22.03 18.469 20.8 19.789 19.96C21.129 19.12 22.629 18.7 24.289 18.7C25.969 18.7 27.469 19.12 28.789 19.96C30.109 20.8 31.149 22.03 31.909 23.65C32.689 25.25 33.079 27.2 33.079 29.5C33.079 31.8 32.689 33.76 31.909 35.38C31.149 36.98 30.109 38.2 28.789 39.04C27.469 39.88 25.969 40.3 24.289 40.3ZM24.289 36.91C25.269 36.91 26.119 36.65 26.839 36.13C27.559 35.59 28.119 34.77 28.519 33.67C28.939 32.57 29.149 31.18 29.149 29.5C29.149 27.8 28.939 26.41 28.519 25.33C28.119 24.23 27.559 23.42 26.839 22.9C26.119 22.36 25.269 22.09 24.289 22.09C23.349 22.09 22.509 22.36 21.769 22.9C21.049 23.42 20.479 24.23 20.059 25.33C19.659 26.41 19.459 27.8 19.459 29.5C19.459 31.18 19.659 32.57 20.059 33.67C20.479 34.77 21.049 35.59 21.769 36.13C22.509 36.65 23.349 36.91 24.289 36.91ZM39.0452 40V20.5L40.7552 22.27H34.6052V19H42.9452V40H39.0452Z" fill="white"/>
</svg>
