<svg width="80" height="80" viewBox="0 0 80 80" fill="none" xmlns="http://www.w3.org/2000/svg">
<circle cx="40" cy="40" r="40" fill="#400080"/>
<path d="M21 30.5C21 29.2402 21.5004 28.032 22.3912 27.1412C23.282 26.2504 24.4902 25.75 25.75 25.75H54.25C55.5098 25.75 56.718 26.2504 57.6088 27.1412C58.4996 28.032 59 29.2402 59 30.5V49.5C59 50.7598 58.4996 51.968 57.6088 52.8588C56.718 53.7496 55.5098 54.25 54.25 54.25H25.75C24.4902 54.25 23.282 53.7496 22.3912 52.8588C21.5004 51.968 21 50.7598 21 49.5V30.5ZM25.75 28.125C25.1201 28.125 24.516 28.3752 24.0706 28.8206C23.6252 29.266 23.375 29.8701 23.375 30.5V32.875H56.625V30.5C56.625 29.8701 56.3748 29.266 55.9294 28.8206C55.484 28.3752 54.8799 28.125 54.25 28.125H25.75ZM56.625 37.625H23.375V49.5C23.375 50.1299 23.6252 50.734 24.0706 51.1794C24.516 51.6248 25.1201 51.875 25.75 51.875H54.25C54.8799 51.875 55.484 51.6248 55.9294 51.1794C56.3748 50.734 56.625 50.1299 56.625 49.5V37.625Z" fill="white"/>
<path d="M25.75 44.75C25.75 44.1201 26.0002 43.516 26.4456 43.0706C26.891 42.6252 27.4951 42.375 28.125 42.375H30.5C31.1299 42.375 31.734 42.6252 32.1794 43.0706C32.6248 43.516 32.875 44.1201 32.875 44.75V47.125C32.875 47.7549 32.6248 48.359 32.1794 48.8044C31.734 49.2498 31.1299 49.5 30.5 49.5H28.125C27.4951 49.5 26.891 49.2498 26.4456 48.8044C26.0002 48.359 25.75 47.7549 25.75 47.125V44.75Z" fill="white"/>
</svg>
