<svg width="80" height="80" viewBox="0 0 80 80" fill="none" xmlns="http://www.w3.org/2000/svg">
<circle cx="40" cy="40" r="40" fill="#400080"/>
<path d="M53.1248 57.0625H52.9017C27.1111 55.5794 23.4492 33.8181 22.9373 27.1769C22.8961 26.6605 22.9571 26.1411 23.117 25.6484C23.2768 25.1556 23.5323 24.6993 23.8688 24.3055C24.2053 23.9116 24.6162 23.5881 25.078 23.3534C25.5398 23.1186 26.0433 22.9773 26.5598 22.9375H33.7917C34.3174 22.937 34.8312 23.0944 35.2664 23.3892C35.7017 23.6841 36.0384 24.1028 36.2329 24.5913L38.2279 29.5C38.42 29.9772 38.4677 30.5002 38.365 31.0042C38.2623 31.5083 38.0139 31.971 37.6504 32.335L34.8548 35.1569C35.2915 37.6385 36.4799 39.9261 38.2593 41.7101C40.0387 43.4942 42.3231 44.6886 44.8036 45.1319L47.6517 42.31C48.0211 41.9506 48.4883 41.7079 48.9947 41.6122C49.5012 41.5165 50.0247 41.572 50.4998 41.7719L55.4479 43.7538C55.929 43.9544 56.3394 44.2937 56.6269 44.7285C56.9144 45.1633 57.066 45.6738 57.0623 46.195V53.125C57.0623 54.1693 56.6475 55.1708 55.909 55.9092C55.1706 56.6477 54.1691 57.0625 53.1248 57.0625ZM26.8748 25.5625C26.5267 25.5625 26.1929 25.7008 25.9467 25.9469C25.7006 26.1931 25.5623 26.5269 25.5623 26.875V26.98C26.1661 34.75 30.0379 53.125 53.0461 54.4375C53.2185 54.4482 53.3913 54.4247 53.5547 54.3684C53.718 54.3121 53.8686 54.2241 53.9979 54.1095C54.1271 53.9949 54.2325 53.8559 54.3079 53.7004C54.3833 53.545 54.4273 53.3762 54.4373 53.2037V46.195L49.4892 44.2131L45.7223 47.9537L45.0923 47.875C33.6736 46.4444 32.1248 35.0256 32.1248 34.9075L32.0461 34.2775L35.7736 30.5106L33.8048 25.5625H26.8748Z" fill="white"/>
</svg>
