<svg width="80" height="80" viewBox="0 0 80 80" fill="none" xmlns="http://www.w3.org/2000/svg">
<circle cx="40" cy="40" r="40" fill="#400080"/>
<path d="M59.25 51H53.75V45.5H51V51H45.5V53.75H51V59.25H53.75V53.75H59.25V51Z" fill="white"/>
<path d="M40 56.5H29V23.5H40V31.75C40.0022 32.4787 40.2926 33.1769 40.8079 33.6921C41.3231 34.2074 42.0213 34.4978 42.75 34.5H51V40H53.75V31.75C53.7549 31.5693 53.7205 31.3897 53.6493 31.2235C53.5781 31.0573 53.4717 30.9086 53.3375 30.7875L43.7125 21.1625C43.5914 21.0282 43.4427 20.9218 43.2765 20.8506C43.1104 20.7794 42.9307 20.745 42.75 20.75H29C28.2713 20.7522 27.5731 21.0426 27.0579 21.5578C26.5426 22.0731 26.2522 22.7713 26.25 23.5V56.5C26.2522 57.2287 26.5426 57.9269 27.0579 58.4421C27.5731 58.9574 28.2713 59.2478 29 59.25H40V56.5ZM42.75 24.05L50.45 31.75H42.75V24.05Z" fill="white"/>
</svg>
