<svg width="80" height="80" viewBox="0 0 80 80" fill="none" xmlns="http://www.w3.org/2000/svg">
<circle cx="40" cy="40" r="40" fill="#400080"/>
<g clip-path="url(#clip0_38_205)">
<path d="M40.4882 21.9216C40.1749 21.796 39.8251 21.796 39.5118 21.9216L23.8457 28.1874L30.1562 30.7101L46.3105 24.2499L40.4882 21.9216ZM49.8438 25.6648L33.6895 32.125L40 34.6476L56.1543 28.1874L49.8438 25.6648ZM58.375 30.1273L41.3125 36.9523V57.7476L58.375 50.9226V30.1299V30.1273ZM38.6875 57.7502V36.9497L21.625 30.1273V50.9252L38.6875 57.7502ZM38.5379 19.4829C39.4765 19.1076 40.5235 19.1076 41.4621 19.4829L60.1758 26.9694C60.4191 27.067 60.6276 27.2351 60.7745 27.4522C60.9214 27.6692 60.9999 27.9253 61 28.1874V50.9252C60.9997 51.4497 60.8422 51.9621 60.5479 52.3963C60.2536 52.8305 59.836 53.1666 59.3489 53.3612L40.4882 60.9055C40.1749 61.031 39.8251 61.031 39.5118 60.9055L20.6537 53.3612C20.1662 53.167 19.748 52.8311 19.4532 52.3969C19.1584 51.9627 19.0005 51.45 19 50.9252V28.1874C19.0001 27.9253 19.0786 27.6692 19.2255 27.4522C19.3724 27.2351 19.5809 27.067 19.8243 26.9694L38.5379 19.4829Z" fill="white"/>
</g>
<defs>
<clipPath id="clip0_38_205">
<rect width="42" height="42" fill="white" transform="translate(19 19)"/>
</clipPath>
</defs>
</svg>
